<svg width="64" height="64" viewBox="0 0 64 64" fill="none" xmlns="http://www.w3.org/2000/svg">
<path d="M43.6667 20.3334V34.9167C43.6667 37.2374 44.5885 39.463 46.2295 41.1039C47.8704 42.7449 50.096 43.6667 52.4167 43.6667C54.7373 43.6667 56.9629 42.7449 58.6039 41.1039C60.2448 39.463 61.1667 37.2374 61.1667 34.9167V32.0001C61.1663 25.4172 58.939 19.0281 54.8471 13.8716C50.7551 8.7151 45.0391 5.09447 38.6285 3.59843C32.218 2.10239 25.4898 2.81893 19.5381 5.63155C13.5864 8.44416 8.76117 13.1874 5.84701 19.0901C2.93285 24.9927 2.10116 31.7076 3.48716 38.1429C4.87317 44.5782 8.39535 50.3553 13.481 54.535C18.5667 58.7147 24.9167 61.0511 31.4985 61.1643C38.0804 61.2774 44.507 59.1608 49.7333 55.1584M43.6667 32.0001C43.6667 38.4434 38.4433 43.6667 32 43.6667C25.5567 43.6667 20.3333 38.4434 20.3333 32.0001C20.3333 25.5567 25.5567 20.3334 32 20.3334C38.4433 20.3334 43.6667 25.5567 43.6667 32.0001Z" stroke="#F3F3F3" stroke-width="4" stroke-linecap="round" stroke-linejoin="round"/>
</svg>
