<svg width="66" height="66" viewBox="0 0 66 66" fill="none" xmlns="http://www.w3.org/2000/svg">
<path d="M33 0.800049C15.233 0.800049 0.799988 15.2331 0.799988 33C0.799988 50.767 15.233 65.2001 33 65.2001C50.767 65.2001 65.2 50.767 65.2 33C65.2 15.2331 50.767 0.800049 33 0.800049ZM33 3.60005C49.2537 3.60005 62.4 16.7463 62.4 33C62.4 49.2538 49.2537 62.4 33 62.4C16.7462 62.4 3.59999 49.2538 3.59999 33C3.59999 16.7463 16.7462 3.60005 33 3.60005ZM45.723 17.6493C44.7654 17.6493 43.6894 17.8711 42.4309 18.3247C40.4764 19.0289 17.489 28.7891 14.8738 29.8993C13.3786 30.5349 10.5945 31.7172 10.5945 34.5368C10.5945 36.4058 11.6897 37.7425 13.8457 38.5125C15.0049 38.9255 17.7581 39.7601 19.3555 40.1997C20.0331 40.3859 20.7532 40.4813 21.4938 40.4813C22.9428 40.4813 24.401 40.1203 25.5434 39.4832C25.5336 39.7185 25.54 39.9562 25.568 40.1942C25.7402 41.6642 26.6466 43.0468 27.9906 43.8938C28.8698 44.4482 36.051 49.2599 37.1234 50.0243C38.6298 51.1009 40.2951 51.6704 41.9359 51.6704C45.0719 51.6704 46.1241 48.4324 46.6309 46.877C47.3659 44.6188 50.1181 26.255 50.4289 23.0168C50.6403 20.7978 49.7155 18.9706 47.9543 18.1278C47.2949 17.81 46.542 17.6493 45.723 17.6493ZM45.723 20.4493C46.108 20.4493 46.4518 20.5129 46.743 20.6543C47.4052 20.9721 47.742 21.6806 47.6398 22.7516C47.301 26.2838 44.5555 44.2126 43.9703 46.0102C43.4691 47.5474 42.9412 48.8704 41.9359 48.8704C40.9307 48.8704 39.8326 48.518 38.7504 47.7438C37.6682 46.971 30.4818 42.1517 29.4836 41.5231C28.6086 40.9715 27.6825 39.5965 28.9859 38.2665C30.0597 37.1717 38.205 29.2662 38.9008 28.5704C39.4188 28.051 39.1765 27.4247 38.6684 27.4247C38.4934 27.4247 38.2838 27.4984 38.0668 27.6762C37.2156 28.372 25.3487 36.3128 24.3211 36.9512C23.6407 37.374 22.5871 37.6786 21.4937 37.6786C21.0275 37.6786 20.5555 37.6227 20.1019 37.4981C18.5227 37.0627 15.8503 36.2519 14.7891 35.8739C13.7685 35.5099 13.3973 35.1612 13.3973 34.5368C13.3973 33.6492 14.6501 33.0364 15.9703 32.475C17.3647 31.8828 41.4925 21.6369 43.3797 20.9578C44.2533 20.6415 45.0524 20.4493 45.723 20.4493Z" fill="white"/>
</svg>
